<svg width="126" height="28" viewBox="0 0 126 28" fill="none" xmlns="http://www.w3.org/2000/svg">
<path d="M14.4611 15.4804C15.056 15.9168 15.5387 16.4884 15.8692 17.1481L15.8621 17.1517C16.2039 17.8842 16.3407 18.6956 16.2581 19.4997C16.2208 20.4363 15.9007 21.3398 15.3401 22.091C14.7966 22.7878 14.0963 23.3464 13.2963 23.7214C12.4275 24.1201 11.503 24.3836 10.5546 24.5029C9.5486 24.6343 8.53198 24.6647 7.51994 24.5935C5.96527 24.5222 4.43486 24.1809 2.99725 23.5846H2.98837C1.88671 23.0826 0.91478 22.3347 0.147259 21.3983C-0.0910992 21.1145 -0.0333694 20.687 0.271736 20.4766L2.2673 19.1005C2.56869 18.8927 2.97796 18.9436 3.21921 19.219C3.70788 19.7512 4.26779 20.2132 4.88303 20.5919C5.7514 21.0843 6.72647 21.358 7.72414 21.3894H7.73657C8.24114 21.4282 8.74822 21.4199 9.25124 21.3645C9.736 21.3188 10.2109 21.199 10.6594 21.0093C11.048 20.8559 11.3965 20.616 11.6786 20.3078C11.9251 20.0307 12.0676 19.6766 12.0817 19.3061V19.2847C12.122 18.9384 12.0363 18.5891 11.8402 18.3008C11.6128 17.9996 11.3271 17.7471 11.0003 17.5584C10.5971 17.3149 10.1645 17.124 9.71292 16.99C9.6372 16.9678 9.56114 16.9452 9.4848 16.9225C9.25682 16.8547 9.02635 16.7862 8.79489 16.7236C8.5818 16.665 8.36517 16.6082 8.14676 16.5549C7.19972 16.3181 6.29293 16.0558 5.4264 15.7681C4.62065 15.5143 3.84991 15.1605 3.1322 14.7149C2.49837 14.3201 1.96761 13.7801 1.5838 13.1395C1.1987 12.4214 1.04197 11.6029 1.13454 10.7933V10.7755C1.18607 9.94249 1.48812 9.14447 2.00108 8.48616C2.51461 7.82619 3.17408 7.29425 3.92771 6.93208C4.73898 6.54402 5.60009 6.27026 6.48649 6.11863C7.4297 5.95681 8.38896 5.90911 9.34358 5.97655C10.7523 6.05759 12.1323 6.40914 13.4081 7.012C14.3871 7.47326 15.2288 8.18222 15.8497 9.06871C16.003 9.32509 15.918 9.65728 15.6604 9.80849L13.296 11.1965C13.0594 11.3354 12.7551 11.2587 12.6126 11.0242C12.1874 10.4588 11.6375 9.99933 11.0056 9.68146C10.3565 9.3526 9.64295 9.17068 8.91563 9.14864H8.90498C8.45051 9.11721 7.99399 9.13388 7.54302 9.19837C7.11822 9.25026 6.70314 9.36332 6.31069 9.53405C5.97099 9.67756 5.66542 9.89121 5.41397 10.161C5.19576 10.4045 5.07006 10.7169 5.05883 11.0437V11.0544C5.04632 11.1905 5.06453 11.3276 5.1121 11.4558C5.15984 11.5887 5.23553 11.7098 5.33406 11.811C5.46103 11.9402 5.5982 12.059 5.74425 12.1662C5.9346 12.3051 6.13869 12.4241 6.35331 12.5214H6.36219C6.86957 12.7718 7.39556 12.9826 7.93545 13.1519C8.538 13.3402 9.16482 13.5048 9.81591 13.6457C10.6767 13.849 11.5251 14.1016 12.3569 14.4023C13.1069 14.6575 13.8158 15.0207 14.4611 15.4804Z" fill="#00C2A3"/>
<path fill-rule="evenodd" clip-rule="evenodd" d="M35.0723 9.25166C36.5468 10.9379 37.3661 13.0982 37.3807 15.3383V16.3418C37.3807 16.8323 36.9833 17.2298 36.4929 17.2298H22.7703C22.8463 17.4572 22.9377 17.6791 23.0438 17.8941C23.6467 19.1261 24.6775 20.0965 25.9435 20.6239C27.2063 21.1497 28.6177 21.1958 29.9122 20.7536C30.7078 20.4822 31.426 20.0385 32.0197 19.4616C32.326 19.1639 32.7868 19.059 33.1649 19.2574L34.8907 20.1628C35.3595 20.4087 35.5125 21.0107 35.1709 21.4152C34.0925 22.6924 32.6818 23.6629 31.0806 24.2098C28.9507 24.9364 26.6289 24.86 24.5514 23.9949C22.471 23.1269 20.7767 21.5326 19.7836 19.5085C18.789 17.4797 18.562 15.1594 19.1444 12.9761C19.7258 10.7982 21.0772 8.90503 22.9479 7.64786C24.816 6.39147 27.0785 5.86091 29.3102 6.15595C31.5436 6.45213 33.5923 7.55279 35.0723 9.25166ZM28.8567 9.68397C27.4786 9.50234 26.0816 9.83017 24.9281 10.6059C23.8845 11.3078 23.0996 12.3324 22.6935 13.5228L22.6534 13.6403H33.5646L33.5246 13.5229C33.2835 12.8147 32.9068 12.1603 32.4154 11.5963C31.5013 10.5471 30.236 9.86723 28.8567 9.68397Z" fill="#00C2A3"/>
<path d="M68.3 16.9101C67.7818 19.3278 66.6317 21.5648 64.9671 23.3928C66.0507 23.7787 67.1924 23.9763 68.3427 23.9772C68.784 23.9772 69.1417 24.335 69.1417 24.7764V27.2008C69.1417 27.6422 68.784 28 68.3427 28C66.4962 27.9999 64.6677 27.6379 62.9605 26.9343C61.2549 26.2318 59.7038 25.2011 58.3952 23.9008C57.0905 22.602 56.0545 21.0588 55.3464 19.3593C54.6417 17.6609 54.2796 15.8398 54.2809 14.0009C54.2809 13.5595 54.6387 13.2017 55.08 13.2017H57.5145C57.9558 13.2017 58.3135 13.5595 58.3135 14.0009C58.3135 15.3111 58.5731 16.6084 59.0771 17.8177C59.5819 19.0293 60.3205 20.1295 61.2505 21.0555C61.2849 21.0889 61.3209 21.1212 61.357 21.1536C61.3862 21.1798 61.4155 21.2061 61.4441 21.2331C62.914 19.8479 63.9284 18.0485 64.3527 16.0736C64.8449 13.7623 64.4974 11.3511 63.3725 9.27297C62.2444 7.18992 60.4149 5.57399 58.2088 4.71198C55.9961 3.84925 53.55 3.79516 51.3013 4.55924C49.0571 5.32168 47.1554 6.85448 45.9334 8.88578C44.7182 10.9118 44.2637 13.3043 44.6513 15.6349C45.0422 17.9679 46.2501 20.0857 48.0589 21.6096C49.8747 23.1383 52.1721 23.9762 54.5455 23.9754C54.8888 23.9754 55.167 24.2537 55.167 24.597V27.3766C55.167 27.7199 54.8888 27.9982 54.5455 27.9982C51.2174 27.9984 47.9963 26.8227 45.4504 24.6787C42.912 22.54 41.2169 19.5679 40.6684 16.2938C40.1203 13.0212 40.7569 9.66027 42.4637 6.81487C44.1766 3.96589 46.8435 1.81628 49.9909 0.747763C53.1446 -0.321151 56.5745 -0.241895 59.6755 0.971551C62.7722 2.17807 65.3411 4.44353 66.9256 7.36546C68.5045 10.2821 68.9918 13.6663 68.3 16.9101Z" fill="#00C2A3"/>
<path d="M85.631 17.7147C85.8872 17.0952 86.0187 16.4313 86.0181 15.761V6.95158C86.0181 6.46113 86.4156 6.06354 86.9059 6.06354H89.161C89.6514 6.06354 90.0489 6.46113 90.0489 6.95158V15.7627C90.0489 16.961 89.813 18.1475 89.3546 19.2545C88.8953 20.3614 88.2232 21.3673 87.3765 22.2153C86.5291 23.0622 85.5233 23.7339 84.4164 24.192C83.3096 24.6505 82.1233 24.8865 80.9254 24.8865C79.7274 24.8865 78.5412 24.6505 77.4343 24.192C76.3239 23.7348 75.3149 23.0624 74.4654 22.2135C73.6181 21.366 72.9459 20.36 72.4873 19.2527C72.0289 18.1457 71.793 16.9592 71.793 15.761V6.94981C71.793 6.45936 72.1905 6.06177 72.6808 6.06177H74.9359C75.4263 6.06177 75.8238 6.45936 75.8238 6.94981V15.761C75.8231 16.4313 75.9547 17.0952 76.2109 17.7147C76.4667 18.3331 76.8421 18.895 77.3154 19.3682C77.788 19.8408 78.3492 20.2156 78.9668 20.4711C79.586 20.7279 80.2497 20.8601 80.92 20.8601C81.5904 20.8601 82.2541 20.728 82.8733 20.4711C83.4914 20.2156 84.0532 19.8408 84.5265 19.3682C84.9992 18.8946 85.3744 18.3328 85.631 17.7147Z" fill="#00C2A3"/>
<path d="M95.943 8.68334C96.8287 7.80241 97.8784 7.10367 99.0327 6.62663V6.61953C100.189 6.14334 101.428 5.89836 102.678 5.89844C103.316 5.89844 103.832 6.4153 103.832 7.05289V8.75083C103.832 9.38842 103.316 9.90528 102.678 9.90528C101.953 9.90522 101.236 10.047 100.565 10.3227C99.8959 10.5989 99.2876 11.0045 98.7753 11.5162C98.2631 12.0234 97.8563 12.6271 97.5785 13.2923C97.321 13.9125 97.1796 14.5747 97.1612 15.246V24.0003C97.1612 24.4907 96.7637 24.8883 96.2733 24.8883H94.0324C93.542 24.8883 93.1445 24.4907 93.1445 24.0003V14.7131H93.1783C93.2515 13.6974 93.4877 12.7001 93.8779 11.7595C94.3584 10.6088 95.06 9.56369 95.943 8.68334Z" fill="#00C2A3"/>
<path fill-rule="evenodd" clip-rule="evenodd" d="M106.039 15.3968C106.039 10.2 110.288 5.99246 115.523 5.99246V5.98535C120.754 5.98535 125.016 10.1929 125.002 15.4004V23.9149C125.002 24.4054 124.604 24.803 124.114 24.803H122.035C121.544 24.803 121.147 24.4054 121.147 23.9149V22.97C119.514 24.1626 117.544 24.804 115.523 24.8012C110.288 24.8012 106.039 20.5936 106.039 15.3968ZM113.391 20.5229C114.068 20.7994 114.792 20.9399 115.523 20.9364V20.9293C116.998 20.935 118.415 20.3547 119.463 19.316C120.51 18.2772 121.102 16.8651 121.109 15.3897C121.1 13.9156 120.507 12.5052 119.46 11.4681C118.413 10.4309 116.997 9.85154 115.523 9.85722C114.792 9.85371 114.068 9.99422 113.391 10.2707C112.715 10.5472 112.099 10.9543 111.58 11.4687C111.061 11.9831 110.648 12.5947 110.365 13.2687C110.082 13.9427 109.935 14.6658 109.931 15.3968C109.935 16.1278 110.082 16.8509 110.365 17.5249C110.648 18.1989 111.061 18.8106 111.58 19.325C112.099 19.8394 112.715 20.2464 113.391 20.5229Z" fill="#00C2A3"/>
</svg>
